<?xml version="1.0" encoding="UTF-8"?>
<svg xmlns="http://www.w3.org/2000/svg" xmlns:xlink="http://www.w3.org/1999/xlink" width="1024px" height="px" viewBox="0 0 1024 1024" version="1.1">
<g id="surface1">
<path style=" stroke:none;fill-rule:nonzero;fill:rgb(69.019608%,69.019608%,69.019608%);fill-opacity:1;" d="M 357.136719 782.652344 C 271.074219 738.179688 205.277344 620.96875 205.277344 506.679688 C 205.277344 229.589844 643.902344 136.746094 778.40625 384.449219 C 916.085938 638 621.1875 919.097656 357.136719 782.652344 Z M 357.136719 782.652344 "/>
<path style=" stroke:none;fill-rule:nonzero;fill:rgb(41.176471%,41.176471%,41.176471%);fill-opacity:1;" d="M 472.425781 545.140625 C 447.058594 506.054688 504.113281 461.230469 538.070312 493.566406 C 566.472656 520.617188 548.695312 570.625 510.675781 570.625 C 498.734375 570.625 481.523438 559.160156 472.425781 545.140625 Z M 472.425781 545.140625 "/>
<path style=" stroke:none;fill-rule:nonzero;fill:rgb(24.705882%,24.705882%,24.705882%);fill-opacity:1;" d="M 435.320312 676.28125 C 408.480469 622.902344 445.65625 557.945312 465.253906 553.019531 C 491.132812 546.515625 474.226562 557.242188 486.679688 615.808594 C 501.335938 684.730469 516.929688 724.035156 473.542969 724.035156 C 461.0625 724.035156 450.050781 705.574219 435.320312 676.28125 Z M 548.648438 572.246094 C 540.859375 560.242188 541.742188 546.65625 555.5 538.558594 C 569.261719 530.460938 584.523438 528.164062 584.523438 536.949219 C 584.523438 545.734375 601.609375 539.421875 622.488281 522.917969 C 652.007812 499.589844 667.027344 499.167969 689.976562 521.023438 C 712.929688 542.878906 711.328125 554.058594 682.78125 571.242188 C 635.527344 599.695312 566.796875 600.207031 548.648438 572.246094 Z M 324.355469 521.121094 C 303.230469 488.570312 360.929688 449.113281 419.339844 459.140625 C 476.679688 468.984375 504.996094 531.085938 438.878906 512.019531 C 427 508.59375 408.007812 519.933594 397.851562 529.601562 C 371.632812 554.574219 343.996094 551.382812 324.355469 521.121094 Z M 516.421875 435.007812 C 495.359375 392.507812 493.910156 366.230469 511.695312 349.296875 C 541.398438 321.007812 598.394531 371.992188 584.144531 434.449219 C 568.753906 501.921875 516.421875 527 516.421875 435.007812 Z M 516.421875 435.007812 "/>
<path style=" stroke:none;fill-rule:nonzero;fill:rgb(19.215686%,19.215686%,19.215686%);fill-opacity:1;" d="M 420.414062 676.578125 C 413.195312 615.078125 397.128906 560.53125 445.171875 549.773438 C 512.152344 534.777344 460.039062 568.757812 444.617188 591.671875 C 430.289062 612.964844 433.984375 659.890625 449.21875 686.996094 C 468.101562 720.597656 479.515625 724.824219 461.78125 724.824219 C 447.476562 724.824219 424.441406 710.878906 420.414062 676.578125 Z M 543.542969 588.027344 C 539.621094 511.253906 546.175781 576.335938 582.007812 588.203125 C 610.582031 597.667969 652.007812 586.414062 680.46875 571.910156 C 712.914062 555.371094 701.828125 537.476562 709.199219 550.390625 C 734.71875 595.117188 546.152344 639.160156 543.542969 588.03125 Z M 313.609375 493.753906 C 301.578125 460.628906 427.308594 428.964844 462.253906 462.089844 C 488.890625 487.34375 477.949219 520.886719 465.453125 486.214844 C 456.832031 462.292969 364.359375 456.050781 342.511719 478.683594 C 318.652344 503.398438 325.578125 526.703125 313.609375 493.753906 Z M 549.535156 478.601562 C 569.878906 462.34375 585.738281 382.074219 561.253906 362.039062 C 530.949219 337.246094 530.410156 342.285156 548.144531 342.285156 C 584.953125 342.285156 605.585938 407.886719 587.921875 451.726562 C 566.847656 504.03125 515.851562 505.523438 549.535156 478.601562 Z M 549.535156 478.601562 "/>
<path style=" stroke:none;fill-rule:nonzero;fill:rgb(0.784314%,0.784314%,0.784314%);fill-opacity:1;" d="M 362.238281 799.191406 C 269.28125 768.414062 229.570312 728.546875 204.769531 635.09375 C 175.394531 524.390625 173.214844 524.648438 204.632812 412.390625 C 231.488281 316.445312 268.527344 281.496094 370.835938 245.050781 C 486.476562 203.855469 486.585938 203.242188 589.175781 217.546875 C 719.480469 235.71875 805.707031 325.460938 831.582031 447.027344 C 848.980469 528.792969 846.222656 544.792969 809.914062 649.84375 C 778.648438 740.316406 742.441406 783.097656 653.277344 805.230469 C 497.730469 843.84375 498.765625 844.390625 362.238281 799.191406 Z M 661.53125 768.332031 C 788.488281 705.808594 842.0625 517.375 770.398438 385.402344 C 672.746094 205.5625 379.402344 193.824219 253.703125 364.726562 C 204.898438 431.082031 204.328125 576.21875 252.519531 664.964844 C 323.03125 794.820312 511.1875 842.371094 661.53125 768.332031 Z M 661.53125 768.332031 "/>
<path style=" stroke:none;fill-rule:nonzero;fill:rgb(99.607843%,0%,0%);fill-opacity:1;" d="M 273.382812 922.992188 C 27.328125 757.175781 -39.941406 480.9375 99.722656 273.691406 C 265.539062 27.636719 538.949219 -43.878906 746.195312 95.785156 C 992.25 261.601562 1066.589844 530.769531 926.925781 738.015625 C 761.113281 984.070312 480.628906 1062.65625 273.382812 922.992188 Z M 662.894531 865.960938 C 714.820312 839.109375 767.203125 818.324219 767.203125 805.941406 C 767.203125 775.613281 246.984375 254.097656 216.730469 254.097656 C 179.035156 254.097656 95.191406 435.316406 95.324219 516.507812 C 95.496094 623.144531 206.476562 788.839844 326.910156 862.269531 C 452.105469 938.601562 536.398438 931.375 662.894531 865.960938 Z M 890.066406 652.589844 C 910.492188 607.761719 925.734375 533.707031 925.667969 494.933594 C 925.382812 326.515625 687.003906 94.488281 517.097656 94.214844 C 453.40625 94.113281 335.699219 138.054688 288.886719 179.414062 C 272.683594 193.730469 803.101562 734.097656 833.359375 734.097656 C 844.125 734.097656 869.640625 697.417969 890.066406 652.589844 Z M 890.066406 652.589844 "/>
<path style=" stroke:none;fill-rule:nonzero;fill:rgb(0%,0%,0%);fill-opacity:1;" d="M 335.203125 984.839844 C 233.261719 928.597656 93.371094 789.523438 44.347656 695.683594 C -44.410156 525.789062 -7.847656 355.3125 155.113281 179.238281 C 378.316406 -61.925781 644.089844 -61.925781 867.292969 179.238281 C 1079.90625 408.960938 1079.90625 611.230469 867.292969 840.953125 C 709.929688 1010.980469 490.253906 1070.382812 335.203125 984.839844 Z M 737.710938 917.335938 C 983.761719 751.519531 1060.933594 499.320312 918.441406 283.589844 C 697.960938 -50.214844 327.527344 -48.15625 103.964844 283.589844 C -35.699219 490.835938 38.644531 751.519531 284.695312 917.335938 C 424.917969 1011.828125 597.488281 1011.828125 737.710938 917.335938 Z M 326.910156 862.269531 C 206.476562 788.839844 95.496094 623.144531 95.324219 516.507812 C 95.191406 435.316406 179.035156 254.097656 216.730469 254.097656 C 246.984375 254.097656 767.203125 775.613281 767.203125 805.941406 C 767.203125 842.53125 584.5 926.105469 504.792969 925.976562 C 464.316406 925.910156 384.269531 897.242188 326.910156 862.269531 Z M 653.699219 856.960938 C 698.527344 836.535156 735.203125 810.996094 735.203125 800.207031 C 735.203125 769.960938 226.816406 271.589844 212.5 287.800781 C 70.203125 448.894531 125.503906 707.460938 328.757812 831.390625 C 445.992188 902.875 537.179688 910.046875 653.699219 856.960938 Z M 544.179688 463.078125 C 396.160156 313.753906 281.011719 186.371094 288.886719 179.414062 C 335.699219 138.054688 453.40625 94.113281 517.097656 94.214844 C 759.101562 94.605469 1018.492188 425.511719 917.511719 615.296875 C 789 856.828125 852.671875 672.425781 894.808594 595.089844 C 935.609375 520.203125 896.636719 422.875 853.070312 350.925781 C 752.753906 185.261719 515.339844 61.820312 371.707031 166.84375 C 321.398438 203.632812 341.988281 233.441406 585.679688 470.84375 C 734.378906 615.710938 892.085938 747.609375 833.835938 735.097656 C 795.800781 726.925781 690.285156 610.46875 544.179688 463.078125 Z M 544.179688 463.078125 "/>
</g>
</svg>
