<?xml version="1.0" encoding="UTF-8"?>
<svg xmlns="http://www.w3.org/2000/svg" xmlns:xlink="http://www.w3.org/1999/xlink" width="1024px" height="px" viewBox="0 0 1024 1024" version="1.1">
<g id="surface1">
<path style=" stroke:none;fill-rule:nonzero;fill:rgb(69.019608%,69.019608%,69.019608%);fill-opacity:1;" d="M 313.703125 868.027344 C 201.824219 807.320312 116.289062 647.324219 116.289062 491.3125 C 116.289062 113.070312 686.492188 -13.664062 861.347656 324.464844 C 1040.324219 670.570312 656.964844 1054.277344 313.703125 868.027344 Z M 313.703125 868.027344 "/>
<path style=" stroke:none;fill-rule:nonzero;fill:rgb(41.176471%,41.176471%,41.176471%);fill-opacity:1;" d="M 463.578125 543.8125 C 430.601562 490.457031 504.769531 429.269531 548.914062 473.414062 C 585.839844 510.339844 562.726562 578.601562 513.300781 578.601562 C 497.777344 578.601562 475.402344 562.949219 463.578125 543.8125 Z M 463.578125 543.8125 "/>
<path style=" stroke:none;fill-rule:nonzero;fill:rgb(24.705882%,24.705882%,24.705882%);fill-opacity:1;" d="M 415.34375 722.828125 C 380.449219 649.960938 428.78125 561.292969 454.253906 554.570312 C 487.894531 545.691406 465.917969 560.332031 482.109375 640.277344 C 501.164062 734.359375 525.105469 779.792969 468.707031 779.792969 C 452.484375 779.792969 434.488281 762.8125 415.34375 722.828125 Z M 562.667969 580.8125 C 552.542969 564.429688 553.6875 545.882812 571.574219 534.828125 C 589.460938 523.773438 609.300781 520.636719 609.300781 532.632812 C 609.300781 544.625 631.511719 536.003906 658.65625 513.476562 C 697.027344 481.632812 716.554688 481.054688 746.390625 510.890625 C 776.226562 540.726562 774.140625 555.984375 737.035156 579.445312 C 675.605469 618.28125 586.257812 618.984375 562.667969 580.8125 Z M 271.089844 511.023438 C 243.628906 466.589844 318.636719 412.730469 394.570312 426.417969 C 469.105469 439.859375 505.921875 524.625 419.96875 498.601562 C 404.527344 493.925781 379.835938 509.402344 366.632812 522.601562 C 332.546875 556.6875 296.621094 552.335938 271.089844 511.023438 Z M 520.769531 393.476562 C 493.390625 335.460938 491.507812 299.59375 514.628906 276.476562 C 553.242188 237.863281 627.332031 307.457031 608.8125 392.714844 C 588.804688 484.816406 520.769531 519.050781 520.769531 393.476562 Z M 520.769531 393.476562 "/>
<path style=" stroke:none;fill-rule:nonzero;fill:rgb(19.215686%,19.215686%,19.215686%);fill-opacity:1;" d="M 395.964844 723.230469 C 386.582031 639.28125 365.691406 564.824219 428.148438 550.136719 C 515.21875 529.667969 447.476562 576.050781 427.429688 607.332031 C 408.800781 636.398438 413.605469 700.453125 433.410156 737.453125 C 457.957031 783.320312 478.695312 780.546875 455.640625 780.546875 C 437.042969 780.546875 401.199219 770.054688 395.964844 723.230469 Z M 556.027344 602.355469 C 550.929688 497.558594 559.453125 586.394531 606.03125 602.597656 C 643.179688 615.519531 697.03125 600.15625 734.03125 580.355469 C 776.207031 557.78125 761.792969 533.351562 771.375 550.980469 C 804.554688 612.035156 559.421875 672.15625 556.027344 602.359375 Z M 257.121094 473.667969 C 241.480469 428.449219 404.925781 385.226562 450.351562 430.445312 C 484.984375 464.914062 470.757812 510.703125 454.515625 463.378906 C 443.304688 430.722656 323.09375 422.199219 294.695312 453.09375 C 263.675781 486.835938 272.675781 518.644531 257.121094 473.667969 Z M 563.820312 452.988281 C 590.265625 430.792969 610.882812 321.21875 579.050781 293.875 C 539.65625 260.027344 538.957031 266.90625 562.011719 266.90625 C 609.859375 266.90625 636.683594 356.457031 613.722656 416.296875 C 586.324219 487.699219 520.027344 489.734375 563.820312 452.988281 Z M 563.820312 452.988281 "/>
<path style=" stroke:none;fill-rule:nonzero;fill:rgb(0.784314%,0.784314%,0.784314%);fill-opacity:1;" d="M 320.335938 890.601562 C 199.492188 848.589844 149.765625 793.679688 115.632812 666.601562 C 73.90625 511.242188 75.320312 511.597656 115.457031 362.601562 C 150.710938 231.726562 198.515625 183.925781 331.515625 134.175781 C 481.84375 77.941406 481.984375 77.105469 615.347656 96.632812 C 784.742188 121.4375 896.835938 243.941406 930.46875 409.882812 C 953.089844 521.496094 949.503906 543.339844 902.304688 686.738281 C 861.660156 810.238281 814.59375 868.632812 698.683594 898.847656 C 496.472656 951.554688 497.816406 952.304688 320.335938 890.601562 Z M 709.410156 848.476562 C 874.453125 763.128906 944.09375 505.914062 850.9375 325.765625 C 723.988281 80.273438 342.648438 64.25 179.242188 297.539062 C 115.800781 388.117188 115.054688 586.234375 177.703125 707.378906 C 269.367188 884.636719 513.964844 949.546875 709.410156 848.476562 Z M 709.410156 848.476562 "/>
</g>
</svg>
