<?xml version="1.0" encoding="UTF-8"?>
<svg xmlns="http://www.w3.org/2000/svg" xmlns:xlink="http://www.w3.org/1999/xlink" width="1024px" height="px" viewBox="0 0 1024 1024" version="1.1">
<g id="surface1">
<path style=" stroke:none;fill-rule:nonzero;fill:rgb(99.607843%,82.745098%,0%);fill-opacity:1;" d="M 457.65625 712.050781 C 485.472656 533.679688 510.105469 448.648438 567.605469 563.164062 C 618.527344 664.578125 661.601562 761.222656 620.699219 790.96875 C 597.71875 807.683594 456.058594 806.816406 434.234375 806.816406 C 399.832031 806.816406 445.203125 791.929688 457.65625 712.050781 Z M 457.65625 712.050781 "/>
<path style=" stroke:none;fill-rule:nonzero;fill:rgb(89.411765%,74.509804%,0%);fill-opacity:1;" d="M 383.328125 765.003906 C 336.847656 685.386719 462.886719 348.496094 510.316406 461.472656 C 528.929688 505.804688 612.0625 575.070312 630.71875 575.070312 C 662.609375 575.070312 718.0625 732.777344 632.335938 781.910156 C 616.660156 790.894531 623.476562 610.878906 564.582031 623.664062 L 531.339844 609.769531 L 509.242188 571.777344 C 471.679688 507.191406 461.03125 898.113281 394.605469 784.324219 Z M 383.328125 765.003906 "/>
<path style=" stroke:none;fill-rule:nonzero;fill:rgb(99.607843%,41.176471%,0%);fill-opacity:1;" d="M 342.667969 763.28125 C 329.441406 728.988281 359.855469 689.679688 409.894531 510.660156 C 447.527344 376.039062 512.214844 366.320312 568.488281 480.792969 C 589 522.519531 606.253906 548.898438 606.828125 539.417969 C 607.402344 529.933594 633.910156 548.066406 665.726562 579.714844 C 713.652344 627.386719 736.144531 651.625 719.8125 697.578125 C 687.328125 788.984375 634.742188 774.921875 640.308594 676.742188 C 644.199219 608.214844 637.550781 589.171875 609.738281 589.171875 C 590.195312 589.171875 555.5625 554.75 532.785156 512.679688 C 481 417.035156 463.765625 441.042969 444.050781 636.273438 C 429.789062 777.539062 370.039062 834.230469 342.667969 763.28125 Z M 342.667969 763.28125 "/>
<path style=" stroke:none;fill-rule:nonzero;fill:rgb(99.607843%,18.431373%,18.431373%);fill-opacity:1;" d="M 314.070312 749.65625 C 268.929688 704.589844 285.964844 546.257812 336.617188 519.296875 C 360.589844 506.535156 389.949219 480.84375 389.949219 456.28125 C 389.949219 431.714844 409.953125 383.675781 434.402344 349.523438 C 476.46875 290.757812 480.851562 289.4375 516.125 324.859375 C 536.621094 345.445312 571.074219 389.394531 592.683594 422.527344 C 614.292969 455.65625 665.996094 485.195312 695.128906 498.398438 C 765.78125 530.417969 803.746094 658.226562 750.789062 709.960938 C 716.242188 743.714844 693.097656 748.007812 706.59375 693.226562 C 717.855469 647.527344 708.621094 622.382812 664.445312 578.441406 C 633.332031 547.492188 607.402344 529.933594 606.828125 539.417969 C 606.253906 548.898438 589 522.519531 568.488281 480.792969 C 545.09375 433.203125 515.554688 404.925781 489.234375 404.925781 C 447.648438 404.925781 413.375 489.113281 371.832031 693.320312 C 360.160156 750.695312 335.890625 771.4375 314.070312 749.65625 Z M 314.070312 749.65625 "/>
<path style=" stroke:none;fill-rule:nonzero;fill:rgb(84.313725%,15.686275%,15.686275%);fill-opacity:1;" d="M 248.042969 697.273438 C 202.519531 647.242188 184.289062 566.46875 222.816406 472.597656 C 248.957031 408.902344 265.839844 376.398438 284.300781 424.171875 C 311.589844 494.789062 339.410156 513.613281 355.703125 427.238281 C 369.75 352.753906 462.558594 220.675781 500.851562 220.675781 C 511.769531 220.675781 520.703125 240.183594 520.703125 264.027344 C 520.703125 287.871094 530.421875 307.382812 542.296875 307.382812 C 554.171875 307.382812 586.042969 341.402344 613.121094 382.980469 C 670.65625 471.324219 689.917969 476.679688 714.300781 411.117188 C 731.242188 365.5625 736.109375 363.855469 768.5625 435.128906 C 824.074219 557.035156 834.347656 621.128906 802.960938 663.824219 C 775.460938 701.234375 765.570312 677.449219 752.265625 606.914062 C 742.574219 555.515625 720.695312 522.972656 684.941406 506.769531 C 655.808594 493.566406 614.292969 455.65625 592.683594 422.527344 C 571.074219 389.394531 536.621094 345.445312 516.125 324.859375 C 480.851562 289.4375 476.46875 290.757812 434.402344 349.523438 C 409.953125 383.675781 389.949219 431.714844 389.949219 456.28125 C 389.949219 480.84375 369.414062 511.875 344.316406 525.234375 C 306.449219 545.390625 299.988281 565.804688 306.339844 645.214844 C 314.894531 752.207031 305.585938 760.519531 248.042969 697.273438 Z M 248.042969 697.273438 "/>
<path style=" stroke:none;fill-rule:nonzero;fill:rgb(0%,0%,0%);fill-opacity:1;" d="M 324.660156 777.945312 C 169.804688 702.277344 143.171875 604.335938 228.699219 425.0625 C 266.425781 345.988281 302.171875 344.75 303.734375 422.460938 C 304.375 454.191406 314.921875 441.175781 335.511719 383.25 C 364.976562 300.359375 475.832031 177.324219 521.046875 177.324219 C 532.84375 177.324219 542.496094 200.664062 542.496094 229.195312 C 542.496094 257.726562 557.292969 286.714844 575.375 293.617188 C 593.457031 300.519531 619.546875 330.824219 633.355469 360.964844 C 665.457031 431.046875 681.382812 430.027344 708.558594 356.152344 L 730.484375 296.542969 L 777.78125 392 C 858.5 554.894531 860.738281 617.210938 788.746094 697.351562 C 721.277344 772.460938 593.457031 827.308594 488.015625 826.390625 C 452.058594 826.082031 378.546875 804.28125 324.660156 777.945312 Z M 609.46875 770.847656 C 737.425781 729.21875 833.933594 629.472656 813.851562 559.609375 C 806.53125 534.144531 785.15625 479.511719 766.347656 438.210938 C 733.894531 366.941406 731.242188 365.5625 714.300781 411.117188 C 689.917969 476.679688 670.65625 471.324219 613.121094 382.980469 C 586.042969 341.402344 554.171875 307.382812 542.296875 307.382812 C 530.421875 307.382812 520.703125 287.871094 520.703125 264.027344 C 520.703125 240.183594 511.769531 220.675781 500.851562 220.675781 C 462.558594 220.675781 369.75 352.753906 355.703125 427.238281 C 339.410156 513.613281 309.816406 524.316406 282.527344 453.695312 L 263.683594 404.925781 L 242.554688 459.117188 C 198.640625 571.765625 195.53125 601.511719 222.171875 654.203125 C 247.828125 704.933594 409.339844 801.808594 473.023438 804.65625 C 488.75 805.359375 550.152344 790.148438 609.46875 770.847656 Z M 609.46875 770.847656 "/>
<path style=" stroke:none;fill-rule:nonzero;fill:rgb(99.607843%,0%,0%);fill-opacity:1;" d="M 274.769531 928.136719 C 28.714844 762.324219 -38.554688 486.082031 101.109375 278.835938 C 266.925781 32.78125 540.335938 -38.730469 747.582031 100.933594 C 993.632812 266.75 1067.976562 535.917969 928.3125 743.164062 C 762.496094 989.214844 482.015625 1067.800781 274.769531 928.136719 Z M 664.277344 871.105469 C 716.207031 844.253906 768.589844 823.46875 768.589844 811.089844 C 768.589844 780.761719 248.371094 259.242188 218.117188 259.242188 C 180.421875 259.242188 96.578125 440.464844 96.710938 521.652344 C 96.882812 628.289062 207.863281 793.984375 328.296875 867.414062 C 453.492188 943.746094 537.785156 936.519531 664.277344 871.105469 Z M 891.453125 657.738281 C 911.878906 612.910156 927.121094 538.851562 927.054688 500.078125 C 926.769531 331.664062 688.390625 99.636719 518.484375 99.363281 C 454.792969 99.257812 337.085938 143.203125 290.273438 184.558594 C 274.070312 198.875 804.488281 739.242188 834.746094 739.242188 C 845.511719 739.242188 871.027344 702.566406 891.453125 657.738281 Z M 891.453125 657.738281 "/>
<path style=" stroke:none;fill-rule:nonzero;fill:rgb(0%,0%,0%);fill-opacity:1;" d="M 336.589844 989.988281 C 234.644531 933.742188 94.757812 794.671875 45.734375 700.832031 C -43.023438 530.9375 -6.460938 360.460938 156.5 184.386719 C 379.703125 -56.78125 645.476562 -56.78125 868.679688 184.386719 C 1081.292969 414.105469 1081.292969 616.378906 868.679688 846.097656 C 711.316406 1016.125 491.640625 1075.53125 336.589844 989.988281 Z M 739.097656 922.480469 C 985.148438 756.664062 1062.320312 504.46875 919.828125 288.734375 C 699.347656 -45.066406 328.914062 -43.007812 105.351562 288.734375 C -34.3125 495.984375 40.03125 756.664062 286.082031 922.480469 C 426.304688 1016.976562 598.875 1016.976562 739.097656 922.480469 Z M 328.296875 867.414062 C 207.863281 793.984375 96.882812 628.289062 96.710938 521.652344 C 96.578125 440.464844 180.421875 259.242188 218.117188 259.242188 C 248.371094 259.242188 768.589844 780.761719 768.589844 811.089844 C 768.589844 847.679688 585.886719 931.253906 506.179688 931.121094 C 465.703125 931.054688 385.65625 902.390625 328.296875 867.414062 Z M 655.082031 862.105469 C 699.910156 841.679688 736.589844 816.144531 736.589844 805.355469 C 736.589844 775.109375 228.203125 276.738281 213.886719 292.949219 C 71.589844 454.039062 126.890625 712.609375 330.144531 836.539062 C 447.378906 908.019531 538.566406 915.195312 655.082031 862.105469 Z M 545.566406 468.226562 C 397.546875 318.902344 282.398438 191.515625 290.273438 184.558594 C 337.085938 143.203125 454.792969 99.257812 518.484375 99.363281 C 760.488281 99.753906 1019.878906 430.65625 918.898438 620.445312 C 790.386719 861.972656 854.054688 677.570312 896.191406 600.238281 C 936.996094 525.351562 898.023438 428.019531 854.457031 356.070312 C 754.140625 190.40625 516.726562 66.964844 373.09375 171.992188 C 322.785156 208.777344 343.375 238.585938 587.066406 475.992188 C 735.765625 620.855469 893.46875 752.753906 835.222656 740.242188 C 797.1875 732.070312 691.671875 615.617188 545.566406 468.226562 Z M 545.566406 468.226562 "/>
</g>
</svg>
