<?xml version="1.0" encoding="UTF-8"?>
<svg xmlns="http://www.w3.org/2000/svg" xmlns:xlink="http://www.w3.org/1999/xlink" width="1024px" height="px" viewBox="0 0 1024 1024" version="1.1">
<g id="surface1">
<path style=" stroke:none;fill-rule:nonzero;fill:rgb(99.607843%,82.745098%,0%);fill-opacity:1;" d="M 418.121094 850.796875 C 458.960938 587.472656 495.136719 461.945312 579.566406 631 C 654.339844 780.71875 717.589844 923.386719 657.527344 967.304688 C 623.785156 991.980469 415.769531 990.699219 383.726562 990.699219 C 333.207031 990.699219 399.832031 968.722656 418.121094 850.796875 Z M 418.121094 850.796875 "/>
<path style=" stroke:none;fill-rule:nonzero;fill:rgb(89.411765%,74.509804%,0%);fill-opacity:1;" d="M 308.976562 928.972656 C 240.726562 811.433594 425.800781 314.09375 495.445312 480.875 C 522.777344 546.324219 644.84375 648.578125 672.238281 648.578125 C 719.070312 648.578125 800.496094 881.394531 674.617188 953.929688 C 651.597656 967.191406 661.605469 701.441406 575.128906 720.316406 L 526.316406 699.804688 L 493.867188 643.714844 C 438.707031 548.371094 423.074219 1125.472656 325.535156 957.492188 Z M 308.976562 928.972656 "/>
<path style=" stroke:none;fill-rule:nonzero;fill:rgb(99.607843%,41.176471%,0%);fill-opacity:1;" d="M 249.273438 926.429688 C 229.847656 875.804688 274.507812 817.769531 347.984375 553.496094 C 403.242188 354.757812 498.234375 340.410156 580.859375 509.398438 C 610.980469 570.996094 636.316406 609.941406 637.160156 595.941406 C 638.007812 581.941406 676.925781 608.714844 723.648438 655.4375 C 794.023438 725.8125 827.050781 761.589844 803.066406 829.433594 C 755.367188 964.375 678.148438 943.613281 686.324219 798.675781 C 692.035156 697.507812 682.273438 669.398438 641.4375 669.398438 C 612.734375 669.398438 561.886719 618.582031 528.4375 556.46875 C 452.398438 415.273438 427.085938 450.71875 398.144531 738.929688 C 377.199219 947.476562 289.464844 1031.167969 249.273438 926.429688 Z M 249.273438 926.429688 "/>
<path style=" stroke:none;fill-rule:nonzero;fill:rgb(99.607843%,18.431373%,18.431373%);fill-opacity:1;" d="M 207.277344 906.3125 C 140.996094 839.78125 166.011719 606.046875 240.386719 566.242188 C 275.585938 547.402344 318.699219 509.476562 318.699219 473.210938 C 318.699219 436.949219 348.070312 366.027344 383.972656 315.609375 C 445.746094 228.859375 452.179688 226.90625 503.972656 279.199219 C 534.070312 309.589844 584.660156 374.472656 616.390625 423.382812 C 648.121094 472.292969 724.046875 515.898438 766.824219 535.386719 C 870.566406 582.65625 926.3125 771.335938 848.554688 847.714844 C 797.828125 897.539062 763.839844 903.878906 783.65625 823.007812 C 800.191406 755.542969 786.632812 718.421875 721.765625 653.554688 C 676.078125 607.867188 638.007812 581.941406 637.160156 595.941406 C 636.316406 609.941406 610.980469 570.996094 580.859375 509.398438 C 546.507812 439.144531 503.132812 397.398438 464.488281 397.398438 C 403.421875 397.398438 353.097656 521.683594 292.097656 823.148438 C 274.957031 907.847656 239.316406 938.472656 207.277344 906.3125 Z M 207.277344 906.3125 "/>
<path style=" stroke:none;fill-rule:nonzero;fill:rgb(84.313725%,15.686275%,15.686275%);fill-opacity:1;" d="M 110.324219 828.984375 C 43.480469 755.121094 16.707031 635.878906 73.28125 497.300781 C 111.667969 403.269531 136.460938 355.285156 163.566406 425.808594 C 203.636719 530.0625 244.488281 557.851562 268.410156 430.339844 C 289.039062 320.378906 425.316406 125.398438 481.542969 125.398438 C 497.578125 125.398438 510.699219 154.199219 510.699219 189.398438 C 510.699219 224.597656 524.964844 253.398438 542.40625 253.398438 C 559.84375 253.398438 606.644531 303.621094 646.40625 365 C 730.886719 495.421875 759.167969 503.328125 794.972656 406.539062 C 819.851562 339.285156 826.996094 336.769531 874.652344 441.984375 C 956.167969 621.957031 971.25 716.574219 925.164062 779.601562 C 884.777344 834.832031 870.257812 799.714844 850.722656 695.589844 C 836.488281 619.710938 804.363281 571.671875 751.859375 547.75 C 709.082031 528.257812 648.121094 472.292969 616.390625 423.382812 C 584.660156 374.472656 534.070312 309.589844 503.972656 279.199219 C 452.179688 226.90625 445.746094 228.859375 383.972656 315.609375 C 348.070312 366.027344 318.699219 436.949219 318.699219 473.210938 C 318.699219 509.476562 288.546875 555.28125 251.695312 575.003906 C 196.089844 604.765625 186.601562 634.898438 195.925781 752.132812 C 208.488281 910.082031 194.820312 922.351562 110.324219 828.984375 Z M 110.324219 828.984375 "/>
<path style=" stroke:none;fill-rule:nonzero;fill:rgb(0%,0%,0%);fill-opacity:1;" d="M 222.828125 948.078125 C -4.558594 836.367188 -43.664062 691.78125 81.921875 427.125 C 137.316406 310.394531 189.804688 308.5625 192.101562 423.285156 C 193.042969 470.125 208.527344 450.914062 238.761719 365.398438 C 282.027344 243.035156 444.804688 61.398438 511.203125 61.398438 C 528.527344 61.398438 542.699219 95.855469 542.699219 137.972656 C 542.699219 180.089844 564.421875 222.886719 590.976562 233.074219 C 617.527344 243.265625 655.839844 288.003906 676.113281 332.5 C 723.253906 435.960938 746.640625 434.457031 786.539062 325.398438 L 818.734375 237.398438 L 888.191406 378.316406 C 1006.714844 618.796875 1010 710.789062 904.285156 829.101562 C 805.214844 939.980469 617.527344 1020.945312 462.699219 1019.597656 C 409.898438 1019.136719 301.957031 986.953125 222.828125 948.078125 Z M 641.039062 937.597656 C 828.929688 876.144531 970.644531 728.890625 941.15625 625.753906 C 930.40625 588.15625 899.015625 507.511719 871.398438 446.539062 C 823.742188 341.324219 819.851562 339.285156 794.972656 406.539062 C 759.167969 503.328125 730.886719 495.421875 646.40625 365 C 606.644531 303.621094 559.84375 253.398438 542.40625 253.398438 C 524.964844 253.398438 510.699219 224.597656 510.699219 189.398438 C 510.699219 154.199219 497.578125 125.398438 481.542969 125.398438 C 425.316406 125.398438 289.039062 320.378906 268.410156 430.339844 C 244.488281 557.851562 201.03125 573.648438 160.964844 469.398438 L 133.289062 397.398438 L 102.265625 477.398438 C 37.78125 643.699219 33.214844 687.617188 72.335938 765.398438 C 110.007812 840.292969 347.171875 983.300781 440.6875 987.507812 C 463.777344 988.546875 553.9375 966.089844 641.039062 937.597656 Z M 641.039062 937.597656 "/>
</g>
</svg>
