<?xml version="1.0" encoding="UTF-8" standalone="no"?>
<!-- Created with Inkscape (http://www.inkscape.org/) -->

<svg
   version="1.1"
   id="svg1"
   width="32"
   height="32"
   viewBox="0 0 32 32"
   sodipodi:docname="lenono.svg"
   inkscape:version="1.3.2 (091e20e, 2023-11-25, custom)"
   xml:space="preserve"
   xmlns:inkscape="http://www.inkscape.org/namespaces/inkscape"
   xmlns:sodipodi="http://sodipodi.sourceforge.net/DTD/sodipodi-0.dtd"
   xmlns="http://www.w3.org/2000/svg"
   xmlns:svg="http://www.w3.org/2000/svg"><defs
     id="defs1" /><sodipodi:namedview
     id="namedview1"
     pagecolor="#ffffff"
     bordercolor="#000000"
     borderopacity="0.25"
     inkscape:showpageshadow="2"
     inkscape:pageopacity="0.0"
     inkscape:pagecheckerboard="false"
     inkscape:deskcolor="#d1d1d1"
     inkscape:zoom="16"
     inkscape:cx="4.75"
     inkscape:cy="14.84375"
     inkscape:window-width="1920"
     inkscape:window-height="1001"
     inkscape:window-x="-9"
     inkscape:window-y="-9"
     inkscape:window-maximized="1"
     inkscape:current-layer="g1" /><g
     inkscape:groupmode="layer"
     inkscape:label="Image"
     id="g1"><g
       id="g53"
       transform="translate(-0.1325825,-0.04419417)"><path
         style="fill:#fe0000"
         d="M 8.6989998,28.790786 C 1.0098223,23.60905 -1.0923915,14.976576 3.2720874,8.5001262 8.4538234,0.81094868 16.997909,-1.4238476 23.474358,2.9406312 31.163536,8.1223672 33.486721,16.53387 29.122242,23.01032 23.940506,30.699497 15.17545,33.155265 8.6989998,28.790786 Z M 20.871174,27.008572 c 1.622687,-0.839124 3.259699,-1.488671 3.259699,-1.875559 0,-0.947739 -16.2568643,-17.2452075 -17.2022418,-17.2452075 -1.1779861,0 -3.798144,5.6631715 -3.7940198,8.2003405 0.00542,3.332417 3.4735789,8.510401 7.2371216,10.805061 3.912307,2.385363 6.546501,2.15951 10.499441,0.115365 z m 7.099184,-6.66782 c 0.638284,-1.400879 1.114639,-3.715156 1.112583,-4.926777 C 29.074011,10.150921 21.624649,2.9001142 16.315132,2.8915436 14.324677,2.8883306 10.646351,4.2615456 9.1834991,5.5539677 8.6771042,6.0013651 25.252723,22.887806 26.198281,22.887806 c 0.336359,0 1.133794,-1.146174 1.772077,-2.547054 z"
         id="path54"
         sodipodi:nodetypes="sssssssssssssssss" /><path
         style="fill:#000000"
         d="M 10.630873,30.72355 C 7.4451473,28.965925 3.073608,24.619968 1.5415969,21.687465 -1.2320793,16.378226 -0.08947145,11.050861 5.0030597,5.5485291 c 6.9751403,-7.5364374 15.2804863,-7.5364374 22.2556273,0 6.644139,7.1787999 6.644139,13.4997529 0,20.6785529 -4.917599,5.313323 -11.782501,7.169719 -16.627814,4.496468 z m 12.57832,-2.109541 C 30.898371,23.432273 33.309944,15.5511 28.857077,8.8094854 21.967111,-1.6218825 10.391028,-1.557571 3.4046699,8.8094854 -0.95980894,15.285935 1.3633757,23.432273 9.0525532,28.614009 c 4.3818648,2.952938 9.7747758,2.952938 14.1566398,0 z M 10.371733,26.893207 C 6.6081903,24.598547 3.1400282,19.420563 3.1346114,16.088146 3.1304872,13.550977 5.7506451,7.8878055 6.9286312,7.8878055 c 0.9453775,0 17.2022418,16.2974685 17.2022418,17.2452075 0,1.143445 -5.709457,3.755103 -8.20034,3.751054 -1.264813,-0.0021 -3.766273,-0.897942 -5.5588,-1.99086 z M 20.58382,26.72729 c 1.400879,-0.638283 2.547053,-1.43634 2.547053,-1.77346 C 23.130873,24.008625 7.2438093,8.43455 6.7963526,8.9411142 2.3496559,13.975204 4.0777939,22.055475 10.429422,25.92829 c 3.663573,2.233812 6.513212,2.458036 10.154398,0.799 z M 17.161421,14.418513 C 12.535823,9.7521453 8.9374433,5.7713568 9.1834991,5.5539677 10.646351,4.2615456 14.324677,2.8883306 16.315132,2.8915436 c 7.562563,0.012207 15.66855,10.3529544 12.512899,16.2837934 -4.015998,7.547804 -2.026318,1.785254 -0.70954,-0.631443 1.275104,-2.340211 0.05723,-5.381784 -1.304279,-7.630206 -3.13485,-5.1769646 -10.554081,-9.0345365 -15.042601,-5.7524509 -1.572094,1.1495432 -0.928677,2.08106 6.686685,9.4999999 4.646857,4.527001 9.575111,8.648834 7.754876,8.257819 -1.188657,-0.255342 -4.486024,-3.894575 -9.051751,-8.500543 z"
         id="path53"
         sodipodi:nodetypes="ssssssssssssssscssssssssssssssss" /></g></g></svg>
