<?xml version="1.0" encoding="UTF-8"?>
<svg xmlns="http://www.w3.org/2000/svg" xmlns:xlink="http://www.w3.org/1999/xlink" width="1024px" height="1024px" viewBox="0 0 1024 1024" version="1.1">
<g id="surface1">
<path style=" stroke:none;fill-rule:nonzero;fill:rgb(56.862748%,56.862748%,56.862748%);fill-opacity:1;" d="M 23.117188 931.234375 C 23.117188 865.707031 211.824219 707.753906 328.964844 675.230469 C 540.144531 616.601562 567.117188 625.492188 567.117188 753.738281 C 567.117188 816.378906 585.644531 847.816406 600.890625 838.390625 C 616.140625 828.96875 648.320312 861.8125 679.800781 896.605469 C 736.484375 959.238281 733.589844 959.851562 380.078125 959.851562 C 183.75 959.851562 23.117188 946.972656 23.117188 931.234375 Z M 407.117188 797.183594 C 407.117188 719.199219 332.339844 730.222656 316.769531 810.5 C 310.652344 842.078125 326.964844 863.851562 356.769531 863.851562 C 386.453125 863.851562 407.117188 836.492188 407.117188 797.183594 Z M 487.4375 800.375 C 478.246094 785.496094 488.804688 766.027344 510.917969 757.113281 C 535.167969 747.34375 528.898438 739.90625 495.117188 738.382812 C 459.097656 736.761719 439.117188 759.363281 439.117188 801.742188 C 439.117188 838.226562 453.632812 858.660156 471.640625 847.53125 C 489.527344 836.476562 496.636719 815.257812 487.4375 800.375 Z M 487.4375 800.375 "/>
<path style=" stroke:none;fill-rule:nonzero;fill:rgb(41.960785%,41.960785%,41.960785%);fill-opacity:1;" d="M 660.453125 902.566406 C 577.269531 829.277344 571.558594 828.226562 566.558594 791.054688 C 552.191406 684.265625 534.050781 555.15625 582.773438 752.476562 C 551.972656 752.234375 574.175781 713.242188 559.046875 687.851562 C 552.238281 676.421875 529.957031 654.070312 533.007812 646.691406 C 544.59375 618.691406 621.671875 644.03125 727.117188 707.328125 C 859.039062 786.527344 983.117188 896.117188 983.117188 933.429688 C 983.117188 947.960938 926.5625 959.851562 857.441406 959.851562 C 804.085938 959.851562 737.132812 966.902344 710.589844 948.445312 C 688.324219 932.964844 700.394531 937.753906 660.453125 902.5625 Z M 660.453125 902.566406 "/>
<path style=" stroke:none;fill-rule:nonzero;fill:rgb(91.37255%,1.568628%,1.568628%);fill-opacity:1;" d="M 181.785156 206.246094 C 147.773438 165.265625 149.875 147.375 193.867188 103.386719 C 243.535156 53.71875 250.699219 53.71875 300.367188 103.386719 C 344.359375 147.375 346.457031 165.265625 312.449219 206.246094 C 289.808594 233.527344 260.40625 255.851562 247.117188 255.851562 C 233.828125 255.851562 204.425781 233.527344 181.785156 206.246094 Z M 181.785156 206.246094 "/>
<path style=" stroke:none;fill-rule:nonzero;fill:rgb(23.529412%,23.529412%,23.529412%);fill-opacity:1;" d="M 316.769531 810.5 C 332.339844 730.222656 407.117188 719.199219 407.117188 797.183594 C 407.117188 836.492188 386.453125 863.851562 356.769531 863.851562 C 326.972656 863.851562 310.648438 842.078125 316.769531 810.5 Z M 439.117188 801.734375 C 439.117188 759.355469 459.097656 736.746094 495.117188 738.371094 C 528.898438 739.894531 562.269531 748.75 510.917969 757.105469 C 495.523438 763.308594 501.097656 774.011719 512.828125 785.605469 C 522.539062 795.210938 484.648438 795.851562 487.441406 800.371094 C 496.632812 815.25 489.523438 836.472656 471.640625 847.527344 C 453.632812 858.652344 439.121094 838.214844 439.121094 801.738281 Z M 567.117188 801.734375 C 567.117188 759.355469 587.097656 736.746094 623.117188 738.371094 C 656.902344 739.894531 698.828125 746.96875 638.917969 757.105469 C 627.210938 761.820312 633.71875 775.917969 643.972656 786.445312 C 649.742188 792.371094 611.113281 793.363281 615.445312 800.367188 C 624.636719 815.246094 617.523438 836.46875 599.640625 847.523438 C 581.632812 858.648438 567.121094 838.210938 567.121094 801.734375 Z M 381.265625 439.917969 C 324.472656 325.332031 294.148438 228.011719 310.234375 211.929688 C 326.316406 195.84375 386.394531 281.1875 450.972656 411.855469 C 525.503906 562.664062 574.765625 651.949219 516.957031 645.894531 C 494.179688 643.511719 435.765625 549.878906 381.265625 439.917969 Z M 381.265625 439.917969 "/>
</g>
</svg>
