<?xml version="1.0" encoding="UTF-8"?>
<svg xmlns="http://www.w3.org/2000/svg" xmlns:xlink="http://www.w3.org/1999/xlink" width="1024px" height="1024px" viewBox="0 0 1024 1024" version="1.1">
<g id="surface1">
<path style=" stroke:none;fill-rule:nonzero;fill:rgb(56.470591%,56.470591%,56.470591%);fill-opacity:1;" d="M 51.609375 949.320312 C 51.609375 883.792969 240.3125 725.839844 357.453125 693.316406 C 534.527344 644.15625 655.367188 647.253906 660.996094 711.917969 C 663.679688 742.71875 673.53125 751.171875 675.488281 771.386719 C 677.449219 791.601562 684.5 846.253906 716.257812 893.484375 L 969.285156 977.824219 L 411.605469 976.855469 C 213.605469 977.460938 51.605469 965.039062 51.605469 949.304688 Z M 499.609375 815.269531 C 499.609375 737.285156 424.832031 748.304688 409.261719 828.585938 C 403.140625 860.164062 419.457031 881.9375 449.261719 881.9375 C 478.945312 881.9375 499.609375 854.574219 499.609375 815.269531 Z M 574.789062 834.960938 C 584.703125 809.125 579.042969 779.472656 562.210938 769.074219 C 545.378906 758.671875 531.609375 779.8125 531.609375 816.046875 C 531.609375 893.3125 549.402344 901.109375 574.789062 834.960938 Z M 574.789062 834.960938 "/>
<path style=" stroke:none;fill-rule:nonzero;fill:rgb(42.352942%,42.352942%,42.352942%);fill-opacity:1;" d="M 712.566406 919.414062 C 683.441406 887.230469 659.609375 836.832031 659.609375 807.414062 C 659.609375 778 645.207031 753.9375 627.609375 753.9375 C 610.007812 753.9375 595.609375 732.335938 595.609375 705.9375 C 595.609375 642.164062 622.363281 645.417969 755.609375 725.414062 C 887.527344 804.613281 1011.609375 914.203125 1011.609375 951.515625 C 1011.609375 1005.011719 766.191406 978.671875 712.566406 919.414062 Z M 712.566406 919.414062 "/>
<path style=" stroke:none;fill-rule:nonzero;fill:rgb(92.941177%,3.921569%,3.921569%);fill-opacity:1;" d="M 722.277344 224.328125 C 688.265625 183.351562 690.367188 165.460938 734.359375 121.472656 C 784.027344 71.804688 791.191406 71.804688 840.859375 121.472656 C 884.851562 165.460938 886.949219 183.351562 852.941406 224.328125 C 830.300781 251.613281 800.898438 273.9375 787.609375 273.9375 C 774.320312 273.9375 744.917969 251.613281 722.277344 224.328125 Z M 722.277344 224.328125 "/>
<path style=" stroke:none;fill-rule:nonzero;fill:rgb(23.137255%,23.137255%,23.137255%);fill-opacity:1;" d="M 409.261719 828.585938 C 424.832031 748.304688 499.609375 737.285156 499.609375 815.269531 C 499.609375 854.574219 478.945312 881.9375 449.261719 881.9375 C 419.460938 881.9375 403.136719 860.164062 409.261719 828.585938 Z M 531.609375 816.046875 C 531.609375 779.808594 545.378906 758.671875 562.210938 769.074219 C 573.675781 776.160156 649.042969 849.152344 618.996094 857.226562 C 611.015625 859.378906 577.949219 826.71875 574.789062 834.960938 C 549.40625 901.109375 531.609375 893.3125 531.609375 816.046875 Z M 615.609375 856.40625 C 606.9375 842.367188 613.054688 809.96875 629.230469 784.410156 C 652.183594 748.125 658.734375 753.722656 659.117188 809.9375 C 659.601562 883.953125 643.363281 901.316406 615.609375 856.40625 Z M 540.101562 569.933594 C 656.40625 308.332031 715.339844 214.46875 744.800781 243.925781 C 785.011719 284.136719 603.421875 657.9375 543.675781 657.9375 C 508.949219 657.9375 508.28125 641.511719 540.105469 569.933594 Z M 540.101562 569.933594 "/>
</g>
</svg>
