<?xml version="1.0" encoding="UTF-8"?>
<svg xmlns="http://www.w3.org/2000/svg" xmlns:xlink="http://www.w3.org/1999/xlink" width="1024px" height="px" viewBox="0 0 1024 1024" version="1.1">
<g id="surface1">
<path style=" stroke:none;fill-rule:nonzero;fill:rgb(29.411765%,70.196078%,99.607843%);fill-opacity:1;" d="M 561.492188 757.742188 C 532.835938 723.210938 534.453125 688.222656 568.4375 607.394531 L 612.730469 502.046875 L 667.378906 585.449219 C 697.433594 631.320312 717.070312 694.597656 711.011719 726.058594 C 697.070312 798.449219 610.5 816.792969 561.492188 757.742188 Z M 561.492188 757.742188 "/>
<path style=" stroke:none;fill-rule:nonzero;fill:rgb(14.509804%,63.921569%,99.607843%);fill-opacity:1;" d="M 496.210938 815.941406 C 443.902344 758.136719 457.613281 729.84375 504.269531 601.796875 C 531.882812 526.007812 535.101562 424.773438 548.707031 382.585938 L 574.054688 304 L 615.511719 276.257812 C 673.222656 237.632812 803.898438 737.6875 769.066406 814.136719 C 726.828125 906.839844 574.507812 902.453125 496.210938 815.9375 Z M 711.011719 726.058594 C 717.070312 694.597656 697.433594 631.320312 667.378906 585.449219 L 612.730469 502.046875 L 568.4375 607.394531 C 534.453125 688.222656 532.835938 723.210938 561.492188 757.742188 C 610.5 816.792969 697.070312 798.449219 711.011719 726.058594 Z M 711.011719 726.058594 "/>
<path style=" stroke:none;fill-rule:nonzero;fill:rgb(0%,57.647059%,99.607843%);fill-opacity:1;" d="M 482.714844 870.25 C 379.875 762.90625 376.445312 710.886719 460.726562 536.445312 C 495.929688 463.589844 524.949219 381.484375 525.21875 353.988281 C 525.488281 326.496094 536.476562 226.09375 551.363281 202.605469 C 571.941406 170.140625 584.035156 234.597656 597.304688 285.339844 C 606.90625 322.050781 601.703125 344.019531 585.742188 334.15625 C 569.785156 324.292969 556.726562 352.78125 556.726562 397.464844 C 556.726562 442.144531 533.359375 537.109375 504.796875 608.492188 C 455.800781 730.945312 456.210938 741.96875 512.078125 803.703125 C 553.980469 850.003906 598.878906 865.078125 665.683594 855.273438 L 760.082031 841.417969 L 686.859375 900.710938 C 591.964844 977.550781 584.441406 976.425781 482.714844 870.25 Z M 652.085938 463.226562 C 629.824219 436.402344 619.691406 406.367188 629.574219 396.484375 C 639.457031 386.605469 663.617188 408.550781 683.261719 445.257812 C 725.175781 523.578125 709.617188 532.546875 652.085938 463.226562 Z M 652.085938 463.226562 "/>
<path style=" stroke:none;fill-rule:nonzero;fill:rgb(0%,51.764706%,89.411765%);fill-opacity:1;" d="M 369.640625 919.554688 C 299.039062 858.511719 235.839844 679.894531 297.300781 717.882812 C 316.785156 729.925781 332.726562 756 332.726562 775.824219 C 332.726562 795.652344 364.039062 845.203125 402.304688 885.9375 C 484.082031 972.984375 462.742188 1000.058594 369.640625 919.554688 Z M 272.964844 745.886719 C 217.621094 668.21875 354.828125 443.078125 385.890625 390.28125 C 416.949219 337.480469 446.507812 215.273438 479.308594 182.742188 C 529.390625 133.078125 556.140625 92.707031 562.542969 99.105469 C 568.941406 105.507812 554.625 174.871094 530.726562 253.25 C 483.835938 407.039062 354.667969 860.546875 272.964844 745.886719 Z M 272.964844 745.886719 "/>
<path style=" stroke:none;fill-rule:nonzero;fill:rgb(0%,49.019608%,84.313725%);fill-opacity:1;" d="M 405.660156 924.0625 C 296.269531 802.535156 293.566406 706.871094 383.59375 548.03125 C 429.742188 466.613281 487.089844 342.398438 511.039062 272 L 554.582031 144 L 558.8125 235.160156 C 562.300781 310.351562 491.644531 472.453125 457.964844 542.164062 C 376.5625 710.644531 380.558594 763.621094 482.714844 870.25 C 543.605469 933.804688 610.433594 962.828125 576.15625 962.828125 C 549.53125 962.828125 441.304688 963.664062 405.660156 924.0625 Z M 405.660156 924.0625 "/>
<path style=" stroke:none;fill-rule:nonzero;fill:rgb(0%,0%,0%);fill-opacity:1;" d="M 328.273438 930.828125 C 207.566406 833.082031 226.882812 649.105469 394.097656 304 C 524.996094 33.84375 535.652344 20.957031 566.085938 96 C 583.933594 140 642.835938 269.601562 696.988281 384 C 821.882812 647.859375 830.488281 842.316406 721.183594 930.828125 C 622.421875 1010.796875 427.035156 1010.796875 328.273438 930.828125 Z M 687.582031 900.121094 C 791.613281 815.886719 782.929688 667.257812 659.128906 413.136719 C 602.808594 297.53125 539.761719 176.695312 538.90625 142.886719 C 536.175781 35.363281 288.304688 618.140625 288.109375 732.121094 C 287.894531 860.914062 390.777344 960 524.726562 960 C 573.628906 960 646.914062 933.054688 687.582031 900.121094 Z M 687.582031 900.121094 "/>
</g>
</svg>
