<?xml version="1.0" encoding="UTF-8"?>
<svg xmlns="http://www.w3.org/2000/svg" xmlns:xlink="http://www.w3.org/1999/xlink" width="1024px" height="px" viewBox="0 0 1024 1024" version="1.1">
<g id="surface1">
<path style=" stroke:none;fill-rule:nonzero;fill:rgb(29.411765%,70.196078%,99.607843%);fill-opacity:1;" d="M 536.199219 670.636719 C 513.921875 644.992188 515.175781 619.003906 541.597656 558.976562 L 576.035156 480.738281 L 618.519531 542.679688 C 641.886719 576.746094 657.152344 623.738281 652.441406 647.105469 C 641.601562 700.867188 574.300781 714.492188 536.199219 670.636719 Z M 536.199219 670.636719 "/>
<path style=" stroke:none;fill-rule:nonzero;fill:rgb(14.509804%,63.921569%,99.607843%);fill-opacity:1;" d="M 485.449219 713.859375 C 444.78125 670.929688 455.441406 649.917969 491.710938 554.820312 C 513.179688 498.535156 515.679688 423.347656 526.261719 392.015625 L 545.964844 333.652344 L 578.195312 313.046875 C 623.0625 284.363281 724.65625 655.742188 697.578125 712.519531 C 664.738281 781.367188 546.316406 778.109375 485.449219 713.859375 Z M 652.441406 647.105469 C 657.152344 623.738281 641.886719 576.746094 618.519531 542.679688 L 576.035156 480.738281 L 541.597656 558.976562 C 515.175781 619.003906 513.921875 644.992188 536.199219 670.636719 C 574.300781 714.492188 641.601562 700.867188 652.441406 647.105469 Z M 652.441406 647.105469 "/>
<path style=" stroke:none;fill-rule:nonzero;fill:rgb(0%,57.647059%,99.607843%);fill-opacity:1;" d="M 474.953125 754.191406 C 395 674.472656 392.335938 635.835938 457.859375 506.285156 C 485.226562 452.175781 507.789062 391.199219 507.996094 370.777344 C 508.207031 350.359375 516.75 275.792969 528.324219 258.347656 C 544.324219 234.238281 553.722656 282.109375 564.039062 319.792969 C 571.503906 347.058594 567.460938 363.375 555.054688 356.046875 C 542.644531 348.722656 532.496094 369.882812 532.496094 403.066406 C 532.496094 436.25 514.328125 506.777344 492.121094 559.789062 C 454.03125 650.738281 454.347656 658.921875 497.78125 704.769531 C 530.359375 739.15625 565.265625 750.351562 617.203125 743.070312 L 690.589844 732.78125 L 633.664062 776.816406 C 559.890625 833.882812 554.039062 833.050781 474.953125 754.191406 Z M 606.632812 451.90625 C 589.324219 431.984375 581.449219 409.679688 589.128906 402.339844 C 596.8125 395 615.59375 411.300781 630.867188 438.5625 C 663.453125 496.730469 651.359375 503.390625 606.632812 451.90625 Z M 606.632812 451.90625 "/>
<path style=" stroke:none;fill-rule:nonzero;fill:rgb(0%,51.764706%,89.411765%);fill-opacity:1;" d="M 387.042969 790.8125 C 332.15625 745.476562 283.019531 612.820312 330.804688 641.03125 C 345.953125 649.976562 358.347656 669.34375 358.347656 684.066406 C 358.347656 698.792969 382.6875 735.59375 412.441406 765.84375 C 476.019531 830.492188 459.425781 850.601562 387.042969 790.8125 Z M 311.882812 661.832031 C 268.855469 604.148438 375.527344 436.945312 399.675781 397.730469 C 423.824219 358.519531 446.804688 267.757812 472.304688 243.597656 C 511.242188 206.710938 532.039062 176.730469 537.015625 181.484375 C 541.992188 186.238281 530.859375 237.753906 512.28125 295.960938 C 475.824219 410.175781 375.40625 746.988281 311.882812 661.832031 Z M 311.882812 661.832031 "/>
<path style=" stroke:none;fill-rule:nonzero;fill:rgb(0%,49.019608%,84.313725%);fill-opacity:1;" d="M 415.046875 794.160156 C 330.003906 703.902344 327.902344 632.855469 397.894531 514.890625 C 433.769531 454.421875 478.355469 362.171875 496.972656 309.886719 L 530.824219 214.824219 L 534.113281 282.527344 C 536.828125 338.371094 481.894531 458.761719 455.710938 510.53125 C 392.425781 635.660156 395.53125 675.003906 474.953125 754.191406 C 522.292969 801.394531 574.25 822.949219 547.597656 822.949219 C 526.898438 822.949219 442.761719 823.570312 415.046875 794.160156 Z M 415.046875 794.160156 "/>
<path style=" stroke:none;fill-rule:nonzero;fill:rgb(0%,0%,0%);fill-opacity:1;" d="M 354.882812 799.183594 C 261.039062 726.589844 276.058594 589.953125 406.058594 333.652344 C 507.828125 133.011719 516.109375 123.441406 539.773438 179.175781 C 553.644531 211.855469 599.441406 308.105469 641.539062 393.066406 C 738.640625 589.03125 745.328125 733.449219 660.351562 799.183594 C 583.570312 858.574219 431.664062 858.574219 354.882812 799.183594 Z M 634.226562 776.378906 C 715.105469 713.816406 708.355469 603.4375 612.105469 414.707031 C 568.320312 328.847656 519.304688 239.105469 518.636719 213.996094 C 516.515625 134.144531 323.808594 566.957031 323.660156 651.609375 C 323.488281 747.261719 403.476562 820.847656 507.617188 820.847656 C 545.632812 820.847656 602.609375 800.835938 634.226562 776.378906 Z M 634.226562 776.378906 "/>
<path style=" stroke:none;fill-rule:nonzero;fill:rgb(99.607843%,0%,0%);fill-opacity:1;" d="M 274.125 919.890625 C 28.070312 754.074219 -39.199219 477.835938 100.464844 270.589844 C 266.28125 24.535156 539.691406 -46.976562 746.9375 92.6875 C 992.992188 258.5 1067.332031 527.667969 927.667969 734.917969 C 761.855469 980.96875 481.371094 1059.554688 274.125 919.890625 Z M 663.636719 862.859375 C 715.5625 836.007812 767.945312 815.222656 767.945312 802.84375 C 767.945312 772.515625 247.726562 250.996094 217.472656 250.996094 C 179.777344 250.996094 95.933594 432.21875 96.066406 513.40625 C 96.238281 620.042969 207.21875 785.738281 327.652344 859.167969 C 452.847656 935.5 537.140625 928.273438 663.636719 862.859375 Z M 890.808594 649.488281 C 911.234375 604.660156 926.476562 530.605469 926.410156 491.832031 C 926.125 323.414062 687.746094 91.390625 517.839844 91.113281 C 454.148438 91.011719 336.441406 134.957031 289.628906 176.3125 C 273.425781 190.628906 803.84375 730.996094 834.101562 730.996094 C 844.867188 730.996094 870.382812 694.316406 890.808594 649.488281 Z M 890.808594 649.488281 "/>
<path style=" stroke:none;fill-rule:nonzero;fill:rgb(0%,0%,0%);fill-opacity:1;" d="M 335.945312 981.738281 C 234.003906 925.496094 94.113281 786.425781 45.089844 692.585938 C -43.667969 522.6875 -7.105469 352.214844 155.855469 176.140625 C 379.058594 -65.027344 644.832031 -65.027344 868.035156 176.140625 C 1080.648438 405.859375 1080.648438 608.128906 868.035156 837.851562 C 710.671875 1007.878906 490.996094 1067.285156 335.945312 981.738281 Z M 738.453125 914.234375 C 984.503906 748.417969 1061.675781 496.222656 919.183594 280.488281 C 698.703125 -53.316406 328.269531 -51.257812 104.707031 280.488281 C -34.957031 487.734375 39.386719 748.417969 285.4375 914.234375 C 425.660156 1008.726562 598.230469 1008.726562 738.453125 914.234375 Z M 327.652344 859.167969 C 207.21875 785.738281 96.238281 620.042969 96.066406 513.40625 C 95.933594 432.21875 179.777344 250.996094 217.472656 250.996094 C 247.726562 250.996094 767.945312 772.515625 767.945312 802.84375 C 767.945312 839.433594 585.242188 923.003906 505.535156 922.875 C 465.058594 922.808594 385.015625 894.140625 327.652344 859.167969 Z M 654.441406 853.859375 C 699.269531 833.433594 735.945312 807.894531 735.945312 797.109375 C 735.945312 766.863281 227.558594 268.492188 213.242188 284.703125 C 70.945312 445.792969 126.246094 704.359375 329.5 828.292969 C 446.734375 899.773438 537.921875 906.949219 654.441406 853.859375 Z M 544.921875 459.976562 C 396.902344 310.65625 281.753906 183.269531 289.628906 176.3125 C 336.441406 134.957031 454.148438 91.011719 517.839844 91.113281 C 759.84375 91.503906 1019.234375 422.410156 918.253906 612.195312 C 789.742188 853.726562 853.414062 669.324219 895.550781 591.992188 C 936.351562 517.105469 897.378906 419.773438 853.8125 347.824219 C 753.496094 182.160156 516.082031 58.71875 372.449219 163.746094 C 322.140625 200.53125 342.730469 230.339844 586.421875 467.746094 C 735.121094 612.609375 892.828125 744.507812 834.578125 731.996094 C 796.542969 723.824219 691.027344 607.371094 544.921875 459.976562 Z M 544.921875 459.976562 "/>
</g>
</svg>
